<svg preserveAspectRatio="none" width="100%" height="100%" overflow="visible" style="display: block;" viewBox="0 0 16.3771 14.7574" fill="none" xmlns="http://www.w3.org/2000/svg">
<path id="Vector" d="M0.899841 8.18855V10.6181C0.899841 12.4072 2.35018 13.8575 4.13927 13.8575H4.94912C6.29094 13.8575 7.37869 12.7698 7.37869 11.428V10.6181C7.37869 9.27628 6.29094 8.18855 4.94912 8.18855H0.899841ZM0.899841 8.18855C0.899841 4.16311 4.16311 0.899841 8.18855 0.899841C12.214 0.899841 15.4773 4.16311 15.4773 8.18855M15.4773 8.18855V10.6181C15.4773 12.4072 14.0269 13.8575 12.2378 13.8575H11.428C10.0861 13.8575 8.99841 12.7698 8.99841 11.428V10.6181C8.99841 9.27628 10.0861 8.18855 11.428 8.18855H15.4773Z" stroke="var(--stroke-0, white)" stroke-width="1.79968" stroke-linecap="round" stroke-linejoin="round"/>
</svg>
