<svg preserveAspectRatio="none" width="100%" height="100%" overflow="visible" style="display: block;" viewBox="0 0 95.8255 65.9272" fill="none" xmlns="http://www.w3.org/2000/svg">
<g id="Group 20529">
<g id="Objects" clip-path="url(#clip0_0_4)">
<path id="Vector" d="M20.8162 39.2565C20.8162 24.5267 32.7571 12.5858 47.4869 12.5858C62.2167 12.5858 74.1576 24.5267 74.1576 39.2565C74.1576 53.9863 62.2167 65.9272 47.4869 65.9272C32.7571 65.9272 20.8162 53.9863 20.8162 39.2565Z" fill="#F6D738"/>
<path id="Vector_2" d="M24.8516 39.2565C24.8516 26.7553 34.9856 16.6213 47.4869 16.6213C59.9881 16.6213 70.1221 26.7553 70.1221 39.2565C70.1221 51.7577 59.9881 61.8917 47.4869 61.8917C34.9856 61.8917 24.8516 51.7577 24.8516 39.2565Z" fill="#F3CC30"/>
<path id="Vector_3" d="M59.3295 19.9377C61.5833 23.4565 62.8903 27.6407 62.8903 32.1297C62.8903 44.631 52.7563 54.765 40.2551 54.765C35.9139 54.765 31.8582 53.5419 28.4125 51.4225C32.4353 57.7025 39.4747 61.8649 47.4869 61.8649C59.9881 61.8649 70.1221 51.7308 70.1221 39.2296C70.1221 31.0705 65.8044 23.9202 59.3295 19.9368V19.9377Z" fill="#EDBD31"/>
<path id="Vector_4" d="M28.8165 41.328C28.8165 30.2926 37.7619 21.3472 48.7973 21.3472C55.2478 21.3472 60.9827 24.4041 64.6359 29.1477C61.1859 23.1583 54.7186 19.1254 47.3096 19.1254C36.2742 19.1254 27.3288 28.0708 27.3288 39.1061C27.3288 43.691 28.8745 47.9146 31.471 51.2865C29.7817 48.3548 28.8157 44.9544 28.8157 41.328H28.8165Z" fill="#F7DB5E"/>
<path id="Vector_5" d="M49.3551 24.6468V27.5306C50.5126 27.7171 51.4593 28.0993 52.1943 28.6781C52.9302 29.2569 53.6308 30.1448 54.2986 31.341L51.4299 32.9446C50.5664 31.3754 49.4391 30.5908 48.0463 30.5908C47.1828 30.5908 46.4671 30.8462 45.8984 31.3561C45.3297 31.866 45.0449 32.5036 45.0449 33.2688C45.0449 33.9652 45.2751 34.544 45.7363 35.0051C46.1873 35.4562 47.0996 35.9913 48.473 36.6087C49.66 37.148 50.6403 37.6563 51.4156 38.1317C52.1901 38.6072 52.774 39.0658 53.1662 39.5077C54.2742 40.7047 54.8287 42.1512 54.8287 43.8481C54.8287 45.5449 54.328 46.9872 53.3284 48.2615C52.338 49.5266 51.0133 50.3801 49.3559 50.8219V53.867H46.7812V50.9093C44.8584 50.5951 43.3926 49.9332 42.382 48.9235C41.3715 47.9129 40.6264 46.3538 40.1459 44.2445L43.3825 43.5675C43.8235 45.0585 44.3628 46.1228 45.0012 46.7604C45.6682 47.3686 46.5553 47.6727 47.6641 47.6727C48.7729 47.6727 49.6449 47.3249 50.3715 46.6285C51.0872 45.9422 51.4459 45.0543 51.4459 43.9657C51.4459 42.9946 51.1468 42.2151 50.5487 41.6262C50.2447 41.3423 49.7961 41.0205 49.2022 40.6627C48.6091 40.3048 47.8506 39.9151 46.9291 39.4934C45.0264 38.6399 43.7756 37.8553 43.1775 37.1396C42.2258 36.0703 41.7503 34.7909 41.7503 33.2999C41.7503 32.5934 41.8629 31.9365 42.0889 31.3284C42.3148 30.7202 42.6408 30.1691 43.0675 29.6735C43.4942 29.1787 44.0218 28.7495 44.6493 28.3866C45.2768 28.0237 45.9883 27.7389 46.7821 27.5331V24.6493H49.3567L49.3551 24.6468Z" fill="#D49A34"/>
</g>
<path id="Vector_6" d="M94.7933 15.4872L68.143 0.281436C66.3615 -0.735165 64.35 1.19429 65.3026 3.0063L68.232 8.57924C46.2781 10.5807 2.32914 16.5536 0.0507218 36.6435C-0.176397 38.8741 0.369701 41.1941 1.47853 43.1221C5.5457 50.0755 15.5216 52.9877 22.9644 54.4423C23.4707 54.5281 23.666 53.8321 23.2074 53.6368C21.1721 52.7903 19.1837 51.8572 17.2785 50.8161C13.0037 48.4861 4.95982 43.1783 6.61692 37.5845C8.33405 31.763 18.2144 29.0352 23.6725 27.85C38.2487 24.9558 53.3361 25.1662 68.1994 26.0574L65.3235 31.505C64.3673 33.317 66.3796 35.2501 68.1625 34.2328L94.7926 19.0378C96.1698 18.2517 96.1698 16.2726 94.7926 15.4872H94.7933Z" fill="#5BBDF4"/>
</g>
<defs>
<clipPath id="clip0_0_4">
<rect width="53.3414" height="53.3414" fill="white" transform="translate(20.8162 12.5858)"/>
</clipPath>
</defs>
</svg>
